<?xml version="1.0" standalone="no"?>
<!DOCTYPE svg PUBLIC "-//W3C//DTD SVG 20010904//EN"
 "http://www.w3.org/TR/2001/REC-SVG-20010904/DTD/svg10.dtd">
<svg version="1.0" xmlns="http://www.w3.org/2000/svg"
 width="360.000000pt" height="139.000000pt" viewBox="0 0 360.000000 139.000000"
 preserveAspectRatio="xMidYMid meet">

<g transform="translate(0.000000,139.000000) scale(0.100000,-0.100000)"
fill="#000000" stroke="none">
<path d="M2581 1168 l-1 -88 -36 0 -37 0 7 -50 c7 -49 6 -50 -19 -50 l-25 0
-2 -437 c-1 -241 -4 -396 -5 -344 -4 93 -4 93 -33 104 l-30 11 0 106 c0 58 -5
124 -10 147 -16 67 -51 154 -60 148 -5 -3 -13 2 -18 11 -8 15 -11 15 -35 -1
l-26 -17 -4 54 -3 53 -2 -57 c-2 -53 -4 -57 -38 -77 -20 -12 -40 -34 -45 -51
-23 -64 -30 -28 -27 130 2 88 1 160 -3 160 -3 0 -10 -5 -17 -12 -9 -9 -12 9
-14 82 l-2 95 -5 -97 -6 -97 -65 -44 -65 -43 -3 -179 c-2 -143 -5 -180 -17
-189 -9 -7 -18 -37 -21 -73 -14 -131 -22 -53 -26 239 -2 230 -6 302 -15 306
-8 2 -13 21 -13 48 0 24 -4 44 -10 44 -5 0 -10 7 -10 15 0 8 -9 15 -19 15 -11
0 -22 8 -24 18 -4 16 -5 16 -6 0 0 -10 -8 -18 -16 -18 -8 0 -15 -7 -15 -15 0
-8 -6 -15 -13 -15 -17 0 -27 -176 -27 -447 0 -100 -4 -173 -9 -173 -5 0 -11
10 -13 23 -4 31 -40 30 -48 -3 -4 -14 -12 -24 -18 -23 -9 2 -12 -27 -12 -102
0 -63 -4 -105 -10 -105 -5 0 -10 19 -11 43 -1 101 -25 165 -61 167 -20 1 -48
-43 -48 -74 0 -22 -6 -36 -16 -40 -27 -10 -34 -7 -34 19 0 18 -5 25 -20 25
-18 0 -20 7 -20 65 l0 65 -30 0 c-26 0 -30 -4 -30 -28 0 -19 -7 -30 -22 -37
-20 -8 -25 -22 -34 -90 -6 -44 -12 -74 -13 -67 -2 18 -51 15 -51 -3 0 -8 -6
-15 -14 -15 -14 0 -26 85 -26 183 0 29 -6 54 -14 63 -17 16 -36 19 -36 4 0 -5
-6 -10 -12 -10 -7 0 -30 -5 -51 -11 l-37 -10 0 -134 c0 -78 -4 -136 -10 -140
-6 -4 -10 13 -10 42 0 27 -4 53 -10 59 -5 5 -11 56 -12 114 l-3 105 -52 14
-53 14 0 43 c0 24 -4 44 -10 44 -5 0 -10 22 -10 49 0 50 -11 70 -51 91 -13 7
-25 7 -38 0 -40 -21 -51 -41 -51 -91 0 -27 -4 -49 -10 -49 -6 0 -10 -47 -10
-120 0 -73 -4 -120 -10 -120 -6 0 -10 -27 -10 -62 0 -105 -14 -53 -16 59 -2
91 -5 114 -25 150 -13 24 -26 43 -30 43 -3 0 -11 -11 -17 -25 -10 -22 -18 -25
-62 -25 l-50 0 -1 -42 c-1 -24 0 -58 1 -75 1 -18 -3 -33 -9 -33 -7 0 -11 -31
-11 -85 0 -47 -4 -85 -9 -85 -23 0 -41 52 -41 120 0 62 -2 70 -19 70 -22 0
-31 19 -31 65 0 46 -9 65 -30 65 -30 0 -42 -26 -47 -110 -7 -103 -23 -114 -23
-16 l0 76 -45 0 -44 0 -3 -157 c-2 -114 -6 -157 -15 -160 -7 -3 -17 6 -22 19
-5 13 -18 30 -30 38 -17 12 -21 25 -21 72 0 45 -3 58 -15 58 -12 0 -15 15 -15
76 0 74 -11 104 -39 104 -8 0 -11 -76 -11 -240 l0 -240 1800 0 1800 0 0 146
c0 126 -2 145 -14 135 -12 -10 -15 -7 -19 21 l-4 33 -1 -34 c-2 -30 -23 -60
-44 -61 -4 0 -10 26 -13 58 -9 80 -14 92 -34 92 -16 0 -19 12 -25 80 -6 69
-11 83 -31 96 -18 12 -28 13 -44 4 -20 -10 -27 -28 -33 -80 -2 -20 -9 -26 -35
-28 l-33 -3 0 -60 c0 -57 -1 -59 -26 -59 -17 0 -28 -6 -31 -20 -3 -13 -19 -24
-44 -30 l-39 -11 0 -69 c0 -39 -4 -70 -9 -70 -4 0 -6 25 -4 55 l4 55 -35 0
c-32 0 -36 -3 -36 -25 0 -18 -5 -25 -20 -25 -18 0 -20 7 -20 55 0 54 0 55 -30
55 -24 0 -30 4 -30 23 0 56 21 364 25 385 5 21 3 23 -17 17 -30 -10 -177 -10
-207 -1 -19 7 -23 5 -18 -6 3 -8 8 -65 12 -126 6 -95 5 -113 -9 -127 -10 -10
-16 -33 -16 -61 0 -24 -4 -44 -10 -44 -6 0 -10 108 -10 305 l0 305 -25 0 c-24
0 -26 2 -19 38 3 20 7 42 8 47 0 6 -13 11 -31 13 l-31 3 -7 77 c-9 108 -13
111 -14 10z"/>
</g>
</svg>
